<?xml version="1.0" encoding="UTF-8" standalone="no" ?>
<!DOCTYPE svg PUBLIC "-//W3C//DTD SVG 1.1//EN" "http://www.w3.org/Graphics/SVG/1.1/DTD/svg11.dtd">
<svg xmlns="http://www.w3.org/2000/svg" xmlns:xlink="http://www.w3.org/1999/xlink" version="1.1" width="1080" height="1080" viewBox="0 0 1080 1080" >
<circle style="stroke: rgb(114,137,218); stroke-width: 0; stroke-dasharray: none; stroke-linecap: butt; stroke-dashoffset: 0; stroke-linejoin: miter; stroke-miterlimit: 4; fill: rgb(114,137,218); fill-rule: nonzero; opacity: 1;" vector-effect="non-scaling-stroke"  cx="540" cy="540" r="540" />
<g transform="matrix(41 0 0 41 540 540)"  >
<path style="stroke: rgb(0,0,0); stroke-width: 0; stroke-dasharray: none; stroke-linecap: butt; stroke-dashoffset: 0; stroke-linejoin: miter; stroke-miterlimit: 4; fill: rgb(255,255,255); fill-rule: nonzero; opacity: 1;" vector-effect="non-scaling-stroke"  transform=" translate(-8, -7.99)" d="M 13.545 2.907 C 12.507508058720274 2.430867383160987 11.412744326377332 2.091043578003262 10.287999999999988 1.895999999999999 C 10.267121831899418 1.89248325013994 10.246292028190133 1.9024975788463272 10.236 1.921 C 10.095 2.1710000000000003 9.939 2.498 9.83 2.754 C 8.617607517854077 2.5700085739550085 7.384392482145919 2.5700085739550063 6.171999999999996 2.7539999999999982 C 6.050411612022223 2.468819892285567 5.912860530894155 2.1907129734028494 5.759999999999998 1.9209999999999985 C 5.749499427686274 1.9027204448380721 5.7288343446263905 1.8927853087515893 5.708000000000001 1.8960000000000001 C 4.583000000000001 2.0900000000000003 3.488000000000001 2.43 2.451000000000001 2.907 C 2.4421264088587282 2.9103865092348133 2.4347038054183643 2.9167487407551254 2.430000000000001 2.925 C 0.356 6.024 -0.213 9.047 0.066 12.032 C 0.067 12.046 0.076 12.06 0.08700000000000001 12.069 C 1.2947242368438505 12.963616004280652 2.6455916192892643 13.646657834703616 4.0820000000000025 14.089000000000002 C 4.10281282319326 14.095566985738332 4.125480400712003 14.08787620050876 4.138 14.07 C 4.446 13.65 4.72 13.207 4.9559999999999995 12.741 C 4.966102448851169 12.721289232402833 4.962033254769746 12.697280987322436 4.946 12.682 C 4.940832172624192 12.677118958542234 4.934701036796773 12.673372153314368 4.928 12.671000000000001 C 4.497160848000949 12.505420724725335 4.079895039575428 12.30648390099682 3.68 12.075999999999999 C 3.6568005446469414 12.062852897621203 3.6480006948913632 12.033813393427796 3.6599999999999997 12.01 C 3.663402679887709 12.002554614595324 3.668547602020586 11.996037713227013 3.675 11.991 C 3.759 11.927999999999999 3.843 11.862 3.923 11.796 C 3.9374006385194953 11.784422356857167 3.9570125031299117 11.781730532302795 3.974 11.789 C 6.593 12.985 9.428 12.985 12.015 11.789 C 12.032605329779127 11.781378007028167 12.052977189851195 11.784068630056554 12.068000000000001 11.796 C 12.148000000000001 11.862 12.232000000000001 11.927999999999999 12.316 11.991 C 12.329826236683312 12.001102936583665 12.337659378973717 12.017470351154056 12.33685443066945 12.034575502619738 C 12.336049482365182 12.051680654085422 12.326713898236003 12.067240128589008 12.312000000000001 12.076 C 11.91301763766655 12.308593489587581 11.495217985326608 12.50729084226166 11.063000000000002 12.67 C 11.04904276352448 12.675051322149754 11.038051322149755 12.686042763524478 11.033000000000001 12.7 C 11.028326006140814 12.713498591367397 11.029410904610096 12.728325537114243 11.036000000000001 12.741 C 11.276000000000002 13.206 11.551000000000002 13.65 11.853000000000002 14.07 C 11.865519599288 14.087876200508758 11.88818717680674 14.095566985738332 11.909 14.089 C 13.347808531418847 13.64802747647642 14.700872823212952 12.96490079079182 15.909999999999998 12.069000000000004 C 15.922268344947947 12.060507328860501 15.929998570807133 12.0468874071086 15.931000000000001 12.032 C 16.265 8.581 15.372000000000002 5.583 13.565000000000001 2.926 C 13.56131755347354 2.9171251538367384 13.554051903414734 2.910222786280872 13.545000000000002 2.907 Z M 5.3469999999999995 10.214 C 4.558 10.214 3.909 9.49 3.909 8.602 C 3.909 7.713 4.545999999999999 6.989000000000001 5.3469999999999995 6.989000000000001 C 6.154 6.989000000000001 6.797 7.719000000000001 6.784999999999999 8.602 C 6.784999999999999 9.49 6.148 10.214 5.3469999999999995 10.214 Z M 10.663 10.214 C 9.875 10.214 9.225 9.49 9.225 8.602 C 9.225 7.713 9.862 6.989000000000001 10.663 6.989000000000001 C 11.47 6.989000000000001 12.114 7.719000000000001 12.101 8.602 C 12.101 9.49 11.47 10.214 10.663 10.214 Z" stroke-linecap="round" />
</g>
</svg>