<svg id="youtube" xmlns="http://www.w3.org/2000/svg" width="56" height="56" viewBox="0 0 56 56">
  <circle id="Ellipse_6" data-name="Ellipse 6" cx="28" cy="28" r="28" fill="#fff"/>
  <path id="Path_50" data-name="Path 50" d="M224.113,218.529l9.107-5.245-9.107-5.245Zm0,0" transform="translate(-199.6 -185.284)" fill="#e93739"/>
  <path id="Path_51" data-name="Path 51" d="M28,0A28,28,0,1,0,56,28,28,28,0,0,0,28,0ZM45.5,28.029a46.213,46.213,0,0,1-.72,8.417,4.384,4.384,0,0,1-3.084,3.084C38.953,40.25,28,40.25,28,40.25s-10.924,0-13.691-.749a4.385,4.385,0,0,1-3.084-3.084A46.01,46.01,0,0,1,10.5,28a46.183,46.183,0,0,1,.721-8.416,4.473,4.473,0,0,1,3.084-3.113C17.047,15.75,28,15.75,28,15.75s10.953,0,13.691.749a4.385,4.385,0,0,1,3.084,3.084C45.525,22.322,45.5,28.029,45.5,28.029Zm0,0" fill="#e93739"/>
</svg>
