<svg xmlns="http://www.w3.org/2000/svg" width="56.001" height="56.001" viewBox="0 0 56.001 56.001">
  <g id="twitter" transform="translate(-0.001)">
    <circle id="Ellipse_5" data-name="Ellipse 5" cx="28" cy="28" r="28" transform="translate(0.001 0)" fill="#373737"/>
    <g id="Group_2" data-name="Group 2" transform="translate(12.53 16.985)">
      <path id="Path_49" data-name="Path 49" d="M57.725,37.167a13.354,13.354,0,0,1-3.844,1.053,6.711,6.711,0,0,0,2.943-3.7,13.4,13.4,0,0,1-4.25,1.624,6.7,6.7,0,0,0-11.405,6.105,19,19,0,0,1-13.8-6.994,6.7,6.7,0,0,0,2.071,8.936,6.646,6.646,0,0,1-3.031-.838c0,.028,0,.057,0,.085A6.7,6.7,0,0,0,31.782,50a6.719,6.719,0,0,1-3.022.116,6.7,6.7,0,0,0,6.252,4.648A13.511,13.511,0,0,1,25.1,57.532,18.932,18.932,0,0,0,35.362,60.54C47.672,60.54,54.4,50.341,54.4,41.5c0-.29-.006-.579-.019-.866a13.572,13.572,0,0,0,3.34-3.464Z" transform="translate(-25.103 -34.028)" fill="#fff"/>
    </g>
  </g>
</svg>
