<svg xmlns="http://www.w3.org/2000/svg" width="124.962" height="72.697" viewBox="0 0 124.962 72.697">
  <g id="Group_4" data-name="Group 4" transform="translate(-898 -60)">
    <g id="VSU_Logo" data-name="VSU Logo" transform="translate(898 59.997)">
      <path id="Path_1" data-name="Path 1" d="M183.19,347.55h.961l1.029,2.768,1.027-2.768h.933l-1.6,3.958h-.763Z" transform="translate(-182.866 -347.482)" fill="#ea3236"/>
      <path id="Path_2" data-name="Path 2" d="M214,347.55h.865v3.93H214Z" transform="translate(-207.523 -347.482)" fill="#ea3236"/>
      <path id="Path_3" data-name="Path 3" d="M231.114,347.55h2.97v.769h-2.111v.8h1.853v.771h-1.853v.825h2.133v.769h-3Z" transform="translate(-221.216 -347.482)" fill="#ea3236"/>
      <path id="Path_4" data-name="Path 4" d="M257.618,348.339h-1.2v-.8h3.255v.8h-1.2v3.134h-.863Z" transform="translate(-241.471 -347.474)" fill="#ea3236"/>
      <path id="Path_5" data-name="Path 5" d="M283.91,347.55h.8l1.839,2.421V347.55h.855v3.93h-.737l-1.9-2.5v2.5h-.855Z" transform="translate(-263.471 -347.482)" fill="#ea3236"/>
      <path id="Path_6" data-name="Path 6" d="M313.984,347.41h.8l1.686,3.958h-.9l-.359-.883h-1.662l-.359.883H312.3Zm.911,2.315-.523-1.274-.521,1.274Z" transform="translate(-286.191 -347.37)" fill="#ea3236"/>
      <path id="Path_7" data-name="Path 7" d="M344.06,347.55h.933l1.033,1.662,1.033-1.662h.931v3.93h-.859v-2.566l-1.1,1.68H346l-1.094-1.662v2.548h-.847Z" transform="translate(-311.608 -347.482)" fill="#ea3236"/>
      <path id="Path_8" data-name="Path 8" d="M376.3,347.55h2.964v.769h-2.1v.8h1.853v.771h-1.853v.825H379.3v.769h-3Z" transform="translate(-337.409 -347.482)" fill="#ea3236"/>
      <path id="Path_9" data-name="Path 9" d="M401.67,350.69l.511-.611a1.8,1.8,0,0,0,1.174.477c.354,0,.565-.142.565-.371v-.012c0-.218-.134-.33-.8-.5-.8-.2-1.3-.419-1.3-1.2v-.012a1.23,1.23,0,0,1,1.376-1.184,2.283,2.283,0,0,1,1.46.5l-.441.643a1.864,1.864,0,0,0-1.023-.387c-.332,0-.505.152-.505.344v.012c0,.258.168.341.849.515.8.2,1.246.493,1.246,1.178v.012c0,.781-.6,1.218-1.444,1.218A2.5,2.5,0,0,1,401.67,350.69Z" transform="translate(-357.713 -347.265)" fill="#ea3236"/>
      <path id="Path_10" data-name="Path 10" d="M428.864,347.55h2.964v.769h-2.1v.8h1.853v.771h-1.853v.825h2.133v.769h-3Z" transform="translate(-379.472 -347.482)" fill="#ea3236"/>
      <path id="Path_11" data-name="Path 11" d="M470.53,350.69l.511-.611a1.8,1.8,0,0,0,1.172.477c.353,0,.567-.142.567-.371v-.012c0-.218-.134-.33-.8-.5-.8-.2-1.3-.419-1.3-1.2v-.012a1.229,1.229,0,0,1,1.374-1.184,2.275,2.275,0,0,1,1.46.5l-.441.643a1.852,1.852,0,0,0-1.021-.387c-.332,0-.505.152-.505.344v.012c0,.258.168.342.847.515.8.2,1.246.493,1.246,1.178v.012c0,.781-.6,1.218-1.442,1.218A2.5,2.5,0,0,1,470.53,350.69Z" transform="translate(-412.82 -347.264)" fill="#ea3236"/>
      <path id="Path_12" data-name="Path 12" d="M497.1,348.339h-1.2v-.8h3.255v.8h-1.2v3.134H497.1Z" transform="translate(-433.124 -347.474)" fill="#ea3236"/>
      <path id="Path_13" data-name="Path 13" d="M523.09,349.8V347.55h.865v2.223c0,.641.32.973.847.973s.849-.322.849-.945V347.55h.863v2.219a1.581,1.581,0,0,1-1.722,1.773A1.56,1.56,0,0,1,523.09,349.8Z" transform="translate(-454.883 -347.482)" fill="#ea3236"/>
      <path id="Path_14" data-name="Path 14" d="M552.51,347.55h1.534a1.959,1.959,0,0,1,2.087,1.953v.012a1.967,1.967,0,0,1-2.087,1.965H552.51Zm.865.781V350.7h.669a1.12,1.12,0,0,0,1.184-1.172v-.012a1.128,1.128,0,0,0-1.184-1.184Z" transform="translate(-478.428 -347.482)" fill="#ea3236"/>
      <path id="Path_15" data-name="Path 15" d="M582.344,347.55h2.964v.769h-2.1v.8h1.853v.771H583.2v.825h2.133v.769h-3Z" transform="translate(-502.3 -347.482)" fill="#ea3236"/>
      <path id="Path_16" data-name="Path 16" d="M609.06,347.55h.8l1.841,2.421V347.55h.853v3.93h-.735l-1.9-2.5v2.5h-.853Z" transform="translate(-523.684 -347.482)" fill="#ea3236"/>
      <path id="Path_17" data-name="Path 17" d="M638.918,348.339h-1.2v-.8h3.251v.8h-1.2v3.134h-.863Z" transform="translate(-546.62 -347.474)" fill="#ea3236"/>
      <path id="Path_18" data-name="Path 18" d="M681.21,349.8V347.55h.865v2.223c0,.641.32.973.847.973s.847-.322.847-.945V347.55h.865v2.219a1.582,1.582,0,0,1-1.724,1.773A1.558,1.558,0,0,1,681.21,349.8Z" transform="translate(-581.424 -347.482)" fill="#ea3236"/>
      <path id="Path_19" data-name="Path 19" d="M710.63,347.55h.8l1.841,2.421V347.55h.855v3.93h-.737l-1.9-2.5v2.5h-.855Z" transform="translate(-604.969 -347.482)" fill="#ea3236"/>
      <path id="Path_20" data-name="Path 20" d="M740.9,347.55h.865v3.93H740.9Z" transform="translate(-629.193 -347.482)" fill="#ea3236"/>
      <path id="Path_21" data-name="Path 21" d="M757.15,349.265v-.012a2.089,2.089,0,0,1,4.176-.012v.012a2.089,2.089,0,0,1-4.176.012Zm3.271,0v-.012a1.2,1.2,0,0,0-1.188-1.234,1.174,1.174,0,0,0-1.18,1.222v.012a1.2,1.2,0,0,0,1.2,1.234,1.172,1.172,0,0,0,1.17-1.222Z" transform="translate(-642.198 -347.22)" fill="#ea3236"/>
      <path id="Path_22" data-name="Path 22" d="M789.78,347.55h.8l1.841,2.421V347.55h.853v3.93h-.735l-1.9-2.5v2.5h-.853Z" transform="translate(-668.311 -347.482)" fill="#ea3236"/>
      <path id="Path_23" data-name="Path 23" d="M436.32,683.839V680.38h1.334v3.425c0,.985.491,1.494,1.3,1.494s1.306-.491,1.306-1.452V680.38H441.6V683.8a2.437,2.437,0,0,1-2.654,2.732A2.4,2.4,0,0,1,436.32,683.839Z" transform="translate(-385.443 -613.841)" fill="#ea3236"/>
      <path id="Path_24" data-name="Path 24" d="M468.178,683v-.018a3.078,3.078,0,0,1,3.159-3.13,3.121,3.121,0,0,1,2.387.935l-.847.977a2.236,2.236,0,0,0-1.548-.683,1.793,1.793,0,0,0-1.755,1.885v.016a1.8,1.8,0,0,0,1.755,1.9,2.218,2.218,0,0,0,1.6-.709l.847.855a3.092,3.092,0,0,1-2.482,1.082A3.058,3.058,0,0,1,468.178,683Z" transform="translate(-410.938 -613.42)" fill="#ea3236"/>
      <path id="Path_25" data-name="Path 25" d="M501.48,680.38h1.33v4.841h3.018v1.212H501.48Z" transform="translate(-437.589 -613.841)" fill="#ea3236"/>
      <path id="Path_26" data-name="Path 26" d="M528.272,680.17H529.5l2.6,6.1h-1.4l-.553-1.358h-2.556l-.553,1.358H525.68Zm1.4,3.561-.8-1.963-.8,1.963Z" transform="translate(-456.956 -613.673)" fill="#ea3236"/>
      <path id="Path_27" data-name="Path 27" d="M232.605,402.746a.938.938,0,0,1,1.064.923,1.046,1.046,0,0,1-1.064,1.066h-3.974l-18.737,48.119a.917.917,0,0,1-.923.639,1.068,1.068,0,0,1-1-.639L187.963,404.8h-2.838a1,1,0,0,1-1.064-1.065.938.938,0,0,1,1.064-.923h18.094a.955.955,0,0,1,1,.923,1.031,1.031,0,0,1-1,1.065h-2.906L213.8,437.027l12.634-32.292h-4.833a1.082,1.082,0,0,1-1-1.066.955.955,0,0,1,1-.923Z" transform="translate(-183.561 -391.653)" fill="#facd62"/>
      <path id="Path_28" data-name="Path 28" d="M445.078,435.721c0,7.1-6.175,13.557-15.544,13.557-5.039,0-10.505-2.2-13.415-5.82v4.755a1.066,1.066,0,0,1-2.129,0V435.721a1.066,1.066,0,0,1,2.129,0v1.987c0,4.969,6.317,9.441,13.415,9.441a14.243,14.243,0,0,0,10.078-3.763L419.6,419.544c-2.982-3.549-4.544-7.24-4.544-10.575,0-6.459,5.322-11.5,14.054-11.5a14.708,14.708,0,0,1,10.928,4.969v-3.914a1.068,1.068,0,0,1,2.131,0V408.96a1.066,1.066,0,0,1-2.131,0v-1.136c0-4.116-5.322-8.232-10.928-8.232A14.2,14.2,0,0,0,420.663,402l21.078,24.982A13.257,13.257,0,0,1,445.078,435.721Z" transform="translate(-367.572 -387.432)" fill="#facd62"/>
      <path id="Path_29" data-name="Path 29" d="M613.271,403.016l.425.683-.725.917-3.07-.15-.234,28.523c0,7.417-8.945,16.856-8.945,16.856l-8.971,3-.777.455a6.848,6.848,0,0,1-1.242.138A20.6,20.6,0,0,1,570.4,432.889V404.707h-3.335a1,1,0,1,1,0-2h18.374a1,1,0,1,1,0,2h-3.335l-.142,45.006,9.117,3.04s6.141-2.269,8.768-3.687V404.707h-4.108a1.158,1.158,0,0,1-1.136-1.066,1.042,1.042,0,0,1,1.136-.923l17.188.128Z" transform="translate(-489.28 -391.625)" fill="#facd62"/>
      <path id="Path_30" data-name="Path 30" d="M232.605,402.736a.938.938,0,0,1,1.064.923,1.044,1.044,0,0,1-1.064,1.064h-3.974l-18.737,48.119a.913.913,0,0,1-.923.639,1.066,1.066,0,0,1-1-.639l-20.009-48.057h-2.838a1,1,0,0,1-1.064-1.064.938.938,0,0,1,1.064-.923h18.094a.957.957,0,0,1,1,.923,1.03,1.03,0,0,1-1,1.064h-2.906L213.8,437.017l12.634-32.294h-4.833a1.082,1.082,0,0,1-1-1.064.955.955,0,0,1,1-.923Zm-19.944,37.2-14.691-35.15h-7.665L208.9,449.5Z" transform="translate(-183.561 -391.645)" fill="#ea3236"/>
      <path id="Path_31" data-name="Path 31" d="M301.794,138.774l-.024-.03.02,0h.016l.014-.006.016-.02-.006-.01-.012,0-.012-.006-.006-.012,0-.016.028.02.016.006.02-.006-.016-.006-.006,0h-.01l-.006-.012h.012l.034-.01h-.012l-.012,0-.012-.006-.012-.008-.01.006-.012.01-.028.006-.024,0,0-.018-.006-.012-.022-.006-.024,0-.012.014.012.026-.01.006-.024-.008-.048.018-.032-.01,0-.016-.008.018,0,.012.006.01v.014l-.006.012-.028.03.01.032.03.014.058,0,.028.01.058.028.042.006-.006-.012-.006,0-.016-.014.01-.006.008,0,.014,0,.01,0,.01-.006-.006-.012.01,0,.006,0,0,0,0,0h.006l.006.01-.03.016,0,.01.006,0,.012,0,0-.016.008.012,0-.008,0-.006.008-.01.018.034,0-.034-.006-.032.008,0,.006.01.012-.006-.024-.022Z" transform="translate(-241.326 -110.941)" fill="#ea3236"/>
      <path id="Path_32" data-name="Path 32" d="M300.344,139.08l-.02-.016-.024-.034-.028-.01-.072.006,0,.05.012.052.022.024.026,0,.026-.006.024,0,.012-.006-.014-.01-.01-.012-.006-.016v-.018l.026.036.062.046.022.022h.016l.028-.008.014-.022-.028-.036Z" transform="translate(-240.245 -111.253)" fill="#ea3236"/>
      <path id="Path_33" data-name="Path 33" d="M342.181,230.48l-.028,0-.1.026-.03-.008-.022-.012-.114-.034-.132-.068-.018,0-.008,0-.008-.006,0,.016.056.026.028.016.024.032.022.022.032.02.064.026.1.054.024.006.028-.02-.014-.008-.036-.006-.04-.016.006-.016.034,0,.05.012.04.022.008.034.006.01.04-.022.016-.026-.006-.034Z" transform="translate(-273.473 -184.359)" fill="#ea3236"/>
      <path id="Path_34" data-name="Path 34" d="M345.056,221.024l-.046,0,0,.026-.012.006-.01-.1-.018-.052-.044,0-.026.028-.022.03v.03l.034.03L344.9,221l.01-.006.008.026-.006.046.012.032.014.016.018.012.02.018.014.028.012,0,.01-.034.024-.03.066-.06-.022-.01Z" transform="translate(-276.002 -176.781)" fill="#ea3236"/>
      <path id="Path_35" data-name="Path 35" d="M347.038,220.348l-.024-.012-.07-.016-.006.018,0,.022.006.022.008.018,0,.014-.034.048-.056.05.006.036.064.066.01-.03.006-.066.012-.032.028-.03.01-.016-.006-.036.008-.014.006-.014-.006-.022.012-.006.008,0h.008Z" transform="translate(-277.587 -176.316)" fill="#ea3236"/>
      <path id="Path_36" data-name="Path 36" d="M344.114,220.206l.014.01.01.036,0,.014-.008.02,0,.016h0l.03.018,0,0,.02.006.03,0,.024-.006V220.3l-.014-.018-.03-.022-.014-.018.01-.006.032.024.018.012h.01l.008-.014-.01-.016-.016-.012-.014-.016v-.006l0-.008,0-.008-.008-.012H344.2l-.014-.008-.05-.006-.008-.01-.018.008-.018.014-.016.012.006.01Z" transform="translate(-275.362 -176.188)" fill="#ea3236"/>
      <path id="Path_37" data-name="Path 37" d="M343.748,227.578l-.028-.006-.092-.012-.028.008-.01,0,.006.01.106.03h.058l.07.038.03,0,.006-.022-.038-.02Z" transform="translate(-274.97 -182.11)" fill="#ea3236"/>
      <path id="Path_38" data-name="Path 38" d="M343.2,223.69l-.042.01-.038.006-.182.094-.048.012-.064.006-.024.016.092-.008.224-.072.038,0,.024.012.014,0,.02-.016.016-.024,0-.018-.016-.018Z" transform="translate(-274.338 -179.013)" fill="#ea3236"/>
      <path id="Path_39" data-name="Path 39" d="M343.47,220.648l-.036-.008-.006.006,0,0h0l-.012,0,.016-.022.022-.006.024,0,.03-.006-.006-.01-.032-.024-.018,0-.026.012-.006-.012.038-.022v-.026l-.018-.018h-.022l-.008,0-.032-.016-.006,0-.006-.02v-.014l.006-.016-.012-.024-.022-.02-.03-.008-.048.01-.016,0-.024-.016-.022-.006-.018,0-.036.018.078.044.03.03.008.046-.006.012-.024.018,0,.008.018.022.008.008h0l.018.048.008.018.02.022.038.028.056.024.058.016.044,0,.024-.03-.014-.03Z" transform="translate(-274.61 -176.356)" fill="#ea3236"/>
      <path id="Path_40" data-name="Path 40" d="M441.748,426.936,420.67,401.952a14.2,14.2,0,0,1,8.446-2.413c5.606,0,10.928,4.116,10.928,8.232v1.14a1.066,1.066,0,0,0,2.131,0V398.474a1.068,1.068,0,0,0-2.131,0v3.9a14.69,14.69,0,0,0-10.928-4.967c-8.732,0-14.054,5.039-14.054,11.5,0,3.335,1.562,7.026,4.544,10.575l20.013,23.848a14.251,14.251,0,0,1-10.078,3.761c-7.1,0-13.415-4.472-13.415-9.439v-1.979a1.066,1.066,0,0,0-2.127,0v12.482a1.066,1.066,0,0,0,2.129,0V443.4c2.91,3.621,8.376,5.82,13.415,5.82,9.369,0,15.544-6.459,15.544-13.555A13.248,13.248,0,0,0,441.748,426.936Zm-3.383-.633h-.03v.012h.01l-.014.014v.058h-.024v-.016l-.02-.022-.014-.024v-.016l-.038-.058v-.016l.01-.088v-.018l.014-.02h0l.328.387h-.046v-.056h-.016l-.1-.01h-.03l-.024-.026v-.062Zm-3.337-4.022-.016.026h-.052l-.028-.024v-.026l.016-.022.016-.016.03.012h0l.03.036Zm-.813-.479h-.044l-.114-.02-.032-.012-.034-.024h0l-.052-.046-.042-.056-.022-.064h.026l.036-.03h.02v-.04l.012-.018.01-.024-.03-.012h0v.038l-.028.012h-.084v.012h-.066v.072l.04-.012.012.022v.034l.016.022.022.016.058.074-.024-.014-.02.02-.018.03-.026.024.014-.022.01-.028v-.06h0l-.042-.048H433.8v.012l-.012.036-.04-.016h-.044l-.04-.01-.026-.046v-.046l.03-.072v-.042l-.038.024-.044.02-.042.012H433.5l-.012.014-.03.012h-.034l-.022-.012v-.028h.088l-.1-.054-.026-.022-.044-.046v-.01l-.014.016v.054h-.038l-.1-.014-.02.018.01.016.038.044v.014l-.032.074h-.014v.016l-.014-.014h-.03l-.01.018h-.1l-.068-.078v-.016h.068v-.01h-.036l-.058-.028h-.036l-.066-.038h-.1l-.012-.01-.014-.012h-.014l-.012.018v.028h-.014l-.018-.012h-.018v-.06l-.034.03-.02.014-.024.012v-.028h.038v-.012H432.5l-.022-.012v.014l-.016.014h-.018l-.026-.014h-.214l.042-.032h.238l.07-.016v-.012l-.054.012-.242-.06-.184-.026-.07-.01-.288-.064h-.04l-.018-.01h-.016l-.01.012-.018.034h0l.01.01h0l-.014.018-.016.012-.038.022v-.012l.038-.058v-.042h.01l-.01-.01h-.028l-.148-.076H431.4l-.026-.072-.048-.032-.222-.032-.128-.018-.387-.06-.212-.078-.034-.018H430.3l-.028-.02-.044-.042-.142-.086-.064-.024-.074-.05h-.13l-.054.02-.024.034h0l.02.014H429.7l-.014-.034.02-.036h.048v-.012l-.086.02-.054.02H429.5v-.014h.028l.05-.094h.114l.04.028h.074v-.02h-.012l-.046-.016-.016-.014-.058-.072-.038-.038-.028-.022v-.062h-.03v-.012l.03-.014.01-.022v-.056l.018-.04.02-.036h-.014l-.2-.088-.034-.024-.026-.03v-.08h-.022l-.012.052v.014h-.042l-.012.016v.056l.01.02-.032-.022L429.26,420v-.024l-.018.014h-.026v-.02l.01-.022.018-.014h.03l-.026-.024h-.032l-.07-.012-.072-.032h-.1l-.112-.02h-.028l-.032.026-.028.028-.022.02h-.022l.024-.022-.012-.018-.03-.014-.116-.026-.094-.042h-.018l-.05-.01-.024-.012-.03-.02-.026-.026-.02-.028-.054.024-.086-.032-.15-.09-.1-.094-.02-.012-.018-.018-.026-.044-.032-.04h-.038l.054.092.02.038-.022.028v-.022l-.014-.036-.018-.028h-.032l-.012-.078-.02-.018-.03-.016-.05-.018h-.014l-.024.016h-.012l-.036-.03h.046l.012.012v-.044h-.088l-.048-.01-.034-.018-.02-.014-.038-.046-.012-.022-.01-.01-.016-.01-.01-.022v-.13l.016-.058h.048v-.02l.01-.016.028-.04-.032-.034-.028-.06-.032-.106v-.012h.022l.018-.01-.01-.054h.024v-.03l-.014-.032h0l-.01.01-.016-.016-.012-.012h.044l-.018-.02-.054-.04-.032-.04-.016-.014h-.024v-.01h.024v-.054h.028l-.038-.056-.046-.13-.032-.058h0v-.016l-.012-.014-.016-.01v.044l-.016-.024.012-.026h.024l.02.034v-.022l-.022-.044v-.184l.02-.012.022-.01v-.12l-.016.02-.042.026-.014.02h-.016l.03-.044.014-.026v-.022h.024v-.02l-.024-.044v-.028l.01-.06V417.5l-.024-.018v-.066l.036-.1v-.054h.012l.02.012h.086v-.018l-.014-.082v-.028h.01l.012.036v.06l.02.02.018-.03.048-.044.016-.024v-.158h.018v.054l.016-.024.014-.062.024-.04v-.072l.02-.04.018-.092v-.07l.026-.03v-.014H427.6v-.012l.01-.014h.012v.01h-.01v.012l.092-.064.016-.016.046-.028.032-.028.014-.014h.022l.016-.024v-.026l-.02-.018-.03-.018-.012-.012h-.06v.032H427.7l.022-.022h.052l.026.012.052.016v-.026l-.028-.04-.02-.028-.016-.024-.016-.016-.012-.012-.04-.012h0l.016.01v-.03l-.01-.04-.032-.072h-.022l-.032.022-.028.034-.012.024h0v-.116h0l.036-.038h0v-.032l-.028-.016-.022-.016v-.046l-.032.046-.02.014H427.5l.074-.09.018-.048.02-.022v-.046h0l-.036-.012-.016-.01h0l-.022-.02h.024l.038.02h.018l.026-.01.022-.016.02-.022.014-.02.016-.044-.012-.018h-.076v-.01l.018-.012h.05l.02-.01.01-.012h0l.012-.01h0l.01-.02.014-.016h.088l-.07-.07-.03-.016v.016h-.036l-.042-.016-.036-.022-.026-.024h.038l.012-.024-.012-.038-.032-.028h-.074l-.022-.014.01-.046.048.016h0v-.072l-.02-.024h-.016l-.018.01h-.042l-.038.02h-.02l-.018-.014-.01-.014-.016-.014h-.022v-.01l.032-.01h.014v-.01h-.072l.022-.022h.1v-.012h-.012v-.01l.022-.032h.06l.036-.014h0l-.01-.01h.062l-.01.028h.044v.028l-.012.012-.026.016-.018.026.028.014h.042l.026-.026h0l.01.01h0v.01h.042l.028.026h.018v-.06h-.036v-.014h.01l.032.024h.05l.04-.018v-.012h-.034V415.1h-.09l-.07-.028h.02v-.024h.02l.054.014h.1l.028-.012.028-.018.018-.022V414.9l-.018-.018-.056-.01v-.024h.08l-.032-.012h-.008v-.01h.036l.014.016.01.024v-.06H428l.012.034h.012v-.052h.01v.034h0l.012-.01v-.038l.01-.016.014-.018.018-.014-.1-.026v.01l-.052.1-.012.078v.01h.034l.078-.03.036.01v-.01h.036l.014-.016.022-.012-.02-.02.014-.054.02-.018v-.012h-.034l.014-.02.028-.024.03-.02h.024l.014-.018.028-.016.032-.018.018-.018.01-.016.014-.034h-.022l-.016-.014-.014-.022-.018-.022.01-.01h0l-.016-.01.01-.034-.01-.042-.03-.076-.01.014h-.048v-.022l-.026-.058v-.03h-.014v-.01l.03-.032.026-.012.1.12h0l.02.05.01.054v.106l.01.04h.034l.026-.07.014-.02.02-.024,6.575,7.789-.024.016h-.056l-.435-.2-.1-.068-.066-.09-.02-.016h-.012v.03h-.012v-.022l.016-.012ZM419.1,403.372l8.678,10.277h0l-.1-.092-.07-.024-.04.028-.038.042-.068.016-.168-.04h-.058l-.068.022H427.1l-.022-.03v-.1l-.02-.032-.028-.014H427l-.032.016-.02.024-.016.028-.022.018h-.042l-.034-.014-.022-.014h-.028l-.04.01-.062.034-.028.01h-.106l-.018.08-.016.028-.022.012h-.026l-.01-.014v-.1l-.012-.04-.024-.042H426.4V413.4l-.018-.014-.018-.01-.02-.012-.016-.02v-.07l-.1-.1-.018-.016h-.036l-.06.028h-.04l-.03-.01-.022-.02-.032-.056h0l-.03-.034v-.166l-.05-.178v-.068l.026-.018h.03l.028.018h.034l.032-.018v-.026l-.016-.094v-.132l-.022-.052v-.058l.034-.054V412.2l-.024-.012L426,412.2l-.032.02-.022.012h0l-.046-.028-.062-.012-.026-.012h-.032l-.012.012v.038l-.036.012-.026-.01-.024-.02-.026-.014h-.03l-.082.022h-.052l-.01.016.014.038-.018.026-.18.166-.026.02-.028.014-.036.012h-.038l-.02-.012-.038-.056-.058-.038h-.064l-.062.016-.086.034-.112.068v.076l-.014.022-.02.02-.044.03h-.044l-.014.01v.056h-.038l-.132-.05-.036-.02H424.3l-.044-.014h-.022l-.036.02h-.048l-.106.052h-.026l-.03-.016-.024-.026h0l-.032-.058-.026-.026h-.1l-.024-.012-.062-.046-.038-.026h-.044v.01h-.106l-.028-.014-.028-.024-.02-.024-.022-.012-.026.014-.014.022-.028.072v.06l.01.034v.03l-.014.032-.016.01h-.162v.024l-.1.1-.016.02-.03.056-.036.052-.028.076-.012.016h-.094v.046l.012.026v.026l-.02.05-.034.026-.012.026.152.186.018.03v.022l-.05.082v.026l-.014.1-.01.03-.014.024-.02.024-.03.018h-.058l-.03.012h0v.034h-.048v-.01H422.7l-.012.044-.056.128-.014.046-.084.15v.01l-.022.016h-.168l-.03-.012-.026-.026-.02-.032-.01-.038v-.038l-.04.022-.1.11-.042.024-.08.058-.01.026v.19l.04.1v.112l.014.026.014.02v.05l-.014.024h-.084l-.042-.03-.022-.01h-.01l-.026.01h-.01l-.052-.02h-.03l-.054-.03-.014-.01-.024-.012-.148-.038-.162-.072h-.022l-.046.068-.014.024v.086l-.012.054v.016l.044.064v.032l-.012.094-.012.016-.028.01h-.024l-.06-.022-.1-.062-.022-.018-.016-.028-.012-.028-.014-.02h-.016l-.022-.012h-.112l-.016.012v.134l.01.086v.02l-.014.034-.066.092-.024.05v.056h.012l.028.014v.032l-.048.09-.02.022-.022.018-.014.024.012.022.02.022v.03l-.014.028-.032.016h-.034l-.044-.014-.064.012h-.052l-.1-.076-.024-.024-.024-.02-.032-.014h-.034l-.07.018h-.036l-.124-.028h-.036l-.064.018h-.048l-.036-.012h-.01l-.014.012v.044l-.034.016-.02-.014-.018-.028-.032-.022h-.09l-.034.024-.01.044.014.066v.062l-.014.012h-.032a12.647,12.647,0,0,1-2.357-6.88,9.027,9.027,0,0,1,1.913-5.54Zm.439,12.458h.034l.014.012h0v.046a.315.315,0,0,1-.042-.058Zm.619.909h.064v.054l.048.052h.15l.064.014.11.092.046.056.04.1.02.036.026.032.024.02.018.012h0l.078-.042.014-.012.032-.056.012-.058v-.062l-.06-.13.012-.038h.042l.05.068.028.064.02.03h.026l.026-.016.084-.1v-.01h.01l.022.016.014.014.012.016.054.112.024.036.032.026h0v.04l-.014.044-.022.1-.018.046-.012.146.018-.024.02-.034.022-.028h.024v.02l-.01.106.012.034.034.074.01.03-.01.028-.046.038-.014.032v.04h.016l.026-.018.052-.032h.054l.022.01.018.016v.068l.018.012h.044l.03.018h0l.046.052.024.024.014.01h.026l.022-.016h.046l.036.016.072.054.1.078.05.034.072.032.032.01h.032l.03-.012h.1l.016-.014h.216l.032-.03h0l.022-.032V418h.052l.054.04.026.012h.114l.1-.026h.038l.09.032.048.012h.018l.012-.01.016-.016.012-.016V418l-.032-.024v-.05h.012l.014-.016.022-.034v-.014l-.014-.014-.02-.03v-.13l.014-.016.032-.012h.014v-.014l.012-.032v-.012l.092-.094.024-.028.014-.012h.016l.052-.038.028-.116.05-.032h.076l.034-.016h.1l.032.024h.02l.028-.028h.084l.03.016.05.036.03.014h.076l.026.022h.052l.034-.02.032-.012.032.012.04.042.038.014h.1l.1-.014.032.01h0v.042l-.03.184-.018.042-.032.03-.042.016-.052-.012v.08l-.056.1v.034h.062l.07-.016.212-.116h.028l.058.03h.144l.014.014.012.018v.042l-.01.01h-.012v.042l.016.032.018.032.016.018h.064l.058-.046.056-.058.06-.036h.172v.032l.022.034.036.02h.076l.026.018v.01l-.018.016h0v.01l.012.012.018.028.016.016.012.018v.024h0v.02l-.018.014-.048.018-.026.018v.056l-.02.046-.058.09v.086h.012l.046-.02h.048l.01.014.01.028.01.058-.018.038-.028.036-.02.052-.024.024-.018.012.01,0-.016.028v.06l.018.152v.024h-.062l-.012.012L425.3,419l-.01.012-.034.022h-.2l-.034-.01-.024-.012h-.024l-.032.014-.024.02-.046.082-.052-.032-.062.01h-.03l-.038.034-.054.05-.032.018v.072l-.03.022h-.144l-.012.014v.028l.014.018.072.068.03.016h.086l.024.022.016.026.018.024.028.012h0v.036l-.014.01v.04l.014.04v.046h0l-.022.014-.028.032-.026.036-.028.024-.01.024v.062l-.014.028-.044.052-.012.026v.034h.018l.03-.014.024-.01.04.028h.138l.026-.032.032-.016.034-.01.2-.01.082.01h.024l.022.028.014.03h.02l.038-.036h.064l.03.01h.13l.078.044h.058l.044-.028h.066l.028.01.092.052h.122l.064.022h.048l.03-.012h.03l.032.018h.038l.068-.024.068-.012h.022l.084-.052.046-.01.036.032h.054l.028-.016.024-.022h.17l.018-.012.014-.014.018-.012h.022l.08.048h.062v.02h0v.032l-.014.01h-.022l-.016.01v.1l.024.1.026.07.038.036.054.014.066.01.042.014v.046l.018.032.024.014h.114l.026.018h.048l.038-.024h0l.02.012.01.016.012.042.01.018.028.016h.11v-.088l.022-.026.034-.016h.068l.018.012.034.036h0v.024h.038l.054.044h.072l.018.014.024.032.014.012h.062l.044.032h0l.044.13.046.044.086.024.08.054.058.028.028.018.05.052.028.018h.19l.06.018.168.076.05.016.218.092.367.084h.066l.012-.02v-.082l.018-.01h.024l.01.012v.018l.014.018h.012l.034.01h.01v.064l.02.018.086.052.11.03.03.02h0v.032l.052.036.016.012.012.014h.158l.02-.062.028.018.018.036.228.421.028.034.032.028.056.018h.232l.016.016.038.088.012.016.054.052.046.03h.048l.042-.032.01.016h.01l.012-.014v-.018h0v-.044l.026-.048v-.128l.038-.018.048.028.038.06.022.058v.022h0v-.01h0l.04.034.026.012h.1l.016.01.024.034h.054l.08.054.064-.026h.108l.024.014.062.074.018.016h.2l.1.042.052.012.048-.01.042-.028.074-.068.03-.016h.01v.02h0l.014.028.016.014h.016l.01.012v.032l-.012.032v.136l-.016.024-.054.04-.006.052-.07.126h-.062l-.016.014v.134l.016.034.03.012h.136l.018.02.042.062.02.02.026.014h.14l.16.1h.026v-.052h.046l.02.014.01.012h.01v-.012h.026l.022.03.018.038.022.024h.038l.06-.046h.044l.036.058.026.022.028.012.1.014.036.014.022.016.014.024.028.08v.012h-.022v.04l.026.054v.08l-.012.028v.032l.03.02v.046l-.024.014-.046.016-.022.014-.022.022-.038.036-.026.018v.022l.01.022.024.02V424l.018.018.022.012h.056l.132.022h.02v.062l-.032.1v.028l.018.022.028.016.02.018v.03h.04l.02.01v.022l.042.032.014.046v.124l.032.044v.162h0v.13l-.01.026-.026.024h.06l-.016.016v.168l.014.034.012.012.03.024.012.014v.014l.022.06.028.178.012.042.018.014h.022l.032.018.02.03.012.036.016.032.034.02h.032l.054-.038h.046l.01.016v.03l.046.034h0l.014.018v.072l.044.04v.072l.02.018.048.02.028.016h0l.056.02.05.022.26.182.042.052.094.15.02.052.014.146v.062l.046.463.016.02h.034v.07l.012.016.04.03.032.046.018.02.02.014.07.024.044.034.028.04.02.042.03.046.132.154.03.048.02.052v.066l.022.014.02.038.022.154.014.042v.082l-.032.04-.022.046-.014.1-.036.022-.044-.012-.084-.046h-.048l-.066.042-.062.064-.022.02-.068.1-.02.074v.054l-.026.052-.018.086-.05.164-.024.044-.046.054-.054.038-.124.054-.02.012-.026.018-.024.04v.168l-.028.026-.088.024.024.018-.144.054-.074.038-.03.058-.022.01h-.014l-.014-.01h-.04l-.018.012-.032.028h0l.032.03.092.062.028.034h0v.06l.016.032v.1l.014.024.082.05.03.028h0v.032l-.022.01h-.13l-.076.07H434.4l-.042-.024H434.3l-.126.024-.064.034-.1.016-.078.026-.016.058v.07l-.018.068v.074l-.046.02-.09.014-.024.018-.016.044h0v.07l.014.034h0l.03.018h.026l.044-.016h.026l.016.014.012.018.018.044.068.07.016.024v.026l.012.062.036.134.014.02h.084l.022.032.04.036h.044l.1-.026.034.01.07.04.036.014.08.018.034.014.034.026v-.044l.016-.028h.068l.034.018.072.078.036.022v.014l-.016.01-.034.016-.024.018h0v.02h0l.02.042h0l.022.02.076.052.122.13h-.05l-.048.012-.092.038h-.16l-.046-.018H434.6l-.074-.016.01.028v.106l-.032.018h.062l-.034-.016-.024-.016-.048-.046-.022-.018-.092-.046-.054-.032-.042-.018-.044.018-.04.038-.024.04-.02.036-.028.034-.02.018-.132.108-.068.058h-.058l-.052.012h0l-.012.024-.026.108v.14H433.7l-.08-.018h-.052l-.076.022-.168.052H433.3l-.03-.014-.016-.02h-.012l-.026.036h0l-11.983-14.262a13.258,13.258,0,0,1-1.068-1.314ZM441.033,441.7l-5.614-6.68h0l.03-.112.022-.052.282-.312.134-.16.188-.22.18-.18.042-.03v-.048l-.016-.02h-.056l.026-.092v-.024l-.038-.062-.02-.022-.022-.016-.29-.154-.032-.024-.022-.024-.024-.022-.409-.124-.152-.046-.054-.03h.1l.062-.014.062.01.088.022.246.106.435.12h.19l.1.018h.028l.066-.032.014-.028.012-.014h.04l.016-.014.024-.038.02-.056V433.2l-.034-.084-.018-.032-.024-.026h-.026l-.042.014h-.026l-.048-.056-.054-.036-.062-.022-.2-.04-.052-.022h-.012l-.12-.034h-.016l-.028-.02h-.038l-.08-.012-.068-.01-.05-.014-.03-.01-.026-.016-.038-.046-.026-.016-.056-.02h0l.6.2.176.01h.054l.146.052h.1l.034-.036.012-.054-.022-.06h.026l.01.012v.044l.012-.03V432.8l-.012-.034h-.164l-.116-.018h-.152l-.052-.014-.246-.112-.034-.024-.046-.052-.03-.012-.066-.012h-.034l.074-.014.068.022.24.138.066.026.066.012.094-.01h.128l.06-.03h0v-.044h0v-.012l.022-.016h0l-.016-.012h-.018v-.066h0v-.03h0l.016.012v.044h.03l.018-.028.038-.134v-.028l-.016-.038V432.3h-.156l-.445.072h-.12l.02-.022H436l.06-.032.126-.038.166-.09.092-.024.03-.014.018-.026-.012-.04-.084-.13-.022-.018-.032-.012-.026-.014-.026-.02-.03-.016h-.032l-.012.018v.076l-.03.016-.02-.012-.018-.024-.018-.016h-.012v.06l-.016.028-.024.02h-.022l-.02-.018-.032-.054h.018l.016.012.016.018.014.028.012-.024.018-.02v-.076l.012-.018.016-.012H436.1l-.018-.022h.012l.03.02.026-.014.04-.044.014-.022v-.162l-.042-.034-.012-.012h-.048v-.032l.022-.034h.062l.032.012.018.012h.024l.026-.026.022-.03.016-.022h.02l.12.026.02.056.014.03.024.026h.042l.016.012v.052h.014v-.128l-.046-.012-.034-.036-.024-.048-.014-.05h.012l.022.044v.048l.034.012v.016h.046V431.5h-.03l-.01-.01v-.076h-.048v-.068h-.074v-.028l.068.018.03.018.02.032h-.028l.016.014.032.01h0l.062.112v.038l-.01.02h0l-.012.014-.01.02.01.028h0v-.034l.016-.024v.014l.026.026.012-.02v-.058l.016.018h0v.016h.01l.014-.03.034-.016h.082l-.012-.024h.05l.048.014h.026l.016.01v.03h-.012v.03l.042-.018h.08l.028-.014v-.08l.022-.066v-.026h.02l.05-.052.068-.046.024-.024.076-.1.02-.034v-.048l.018-.064V431h0l.038-.06.03-.032.032-.024.072-.108.048-.05.016-.024.148-.226.07-.088.022-.018.032-.02h.028l.082-.016h.032v-.146l-.024-.072v-.1l.014-.058V429.9l.036-.038.174-.142h.048l.038.042h.012v-.082l.03-.02v-.02l-.02-.084v-.038l.026-.04.014-.012.04-.058h.01l.036-.028v-.026l-.018-.072v-.072l.014-.038.036-.038v-.032h0l.058-.032.014-.012.024-.032.014-.012h.082l.026-.016.016-.014v-.054l-.024-.09v-.092l.032-.066.02-.024.026-.02.028-.016h.112l.028-.014.02-.02.014-.026.022-.052v-.052l-.038-.058-.044-.116-.038-.068-.044-.026h.01l.032-.02-.024-.02-.012-.024v-.048h-.016l-.028-.01-.014-.018.032-.03h.012l.042.048.03.01.032-.01.024-.016.024-.01h.028v-.094l.014-.038v-.182h.018v-.044l-.1-.044h0l-.016-.034-.034-.018-.01-.022v-.052h-.012v.1l-.054.016-.038-.048v-.06l.028-.022.02-.056v-.108l-.02-.05-.024-.02-.052-.014-.018-.012-.016-.048h0l-.04-.026v-.04l.026.012.05.058.086.074h-.012l.046.044.054.12.038.042h0v-.01h0l.024.012H439l.026-.012.02-.024v-.012h-.026l-.024-.01-.02-.018-.014-.028.014-.036h0v-.042h-.084l-.09-.06-.024-.022-.042-.062v-.06l-.018-.012H438.7l-.014-.02h-.04v-.008l.014-.012h.048l-.02-.01h-.024l-.016-.016V427h-.1l-.016-.01h.054v-.064h.032v-.028h-.07l-.02-.012-.012-.01-.02-.034-.026-.034-.03-.016-.026.022-.02-.012-.038-.014-.018-.016h.036l-.018-.014h-.012l.04-.032h.062l.108.038.042.03h.054l.01-.024v-.054h0l1.458,1.73a11.513,11.513,0,0,1,2.838,7.389,10.853,10.853,0,0,1-1.913,5.866Z" transform="translate(-367.58 -387.384)" fill="#ea3236"/>
      <path id="Path_41" data-name="Path 41" d="M612.659,402.72a.955.955,0,0,1,1,.923,1.082,1.082,0,0,1-1,1.064h-2.91v28.959a19.873,19.873,0,0,1-39.745,0V404.707h-3.335a1,1,0,1,1,0-1.987h18.374a1,1,0,0,1,0,1.987h-3.257v44.642a17.467,17.467,0,0,0,16.177,0V404.707H594.7a1.158,1.158,0,0,1-1.136-1.064,1.044,1.044,0,0,1,1.136-.923Zm-33,45.353V404.707h-7.523v28.959A17.587,17.587,0,0,0,579.656,448.073Zm27.96-43.366H600.1v43.366a17.587,17.587,0,0,0,7.523-14.409Z" transform="translate(-488.88 -391.629)" fill="#ea3236"/>
      <path id="Path_42" data-name="Path 42" d="M633.992,694.677H592.829a.9.9,0,0,1,0-1.8h41.163a.9.9,0,0,1,0,1.8Z" transform="translate(-509.975 -623.844)" fill="#ea3236"/>
      <path id="Path_43" data-name="Path 43" d="M223.632,694.677H182.469a.9.9,0,0,1,0-1.8h41.163a.9.9,0,0,1,0,1.8Z" transform="translate(-181.57 -623.844)" fill="#ea3236"/>
    </g>
  </g>
</svg>
